<svg xmlns="http://www.w3.org/2000/svg" xmlns:xlink="http://www.w3.org/1999/xlink" viewBox="0,0,256,256" width="100px" height="100px"><g fill="#ff003b" fill-rule="nonzero" stroke="none" stroke-width="1" stroke-linecap="butt" stroke-linejoin="miter" stroke-miterlimit="10" stroke-dasharray="" stroke-dashoffset="0" font-family="none" font-weight="none" font-size="none" text-anchor="none" style="mix-blend-mode: normal"><g transform="scale(5.12,5.12)"><path d="M15,5c-5.51133,0 -10,4.48867 -10,10v20c0,5.51133 4.48867,10 10,10h20c5.51133,0 10,-4.48867 10,-10v-20c0,-5.51133 -4.48867,-10 -10,-10zM37,11c1.105,0 2,0.895 2,2c0,1.105 -0.895,2 -2,2c-1.105,0 -2,-0.895 -2,-2c0,-1.105 0.895,-2 2,-2zM25,15c5.523,0 10,4.477 10,10c0,5.523 -4.477,10 -10,10c-5.523,0 -10,-4.477 -10,-10c0,-5.523 4.477,-10 10,-10z"></path></g></g></svg>